# xmcd
#
# Track frame offsets:
#	150
#	16539
#	30287
#	46509
#	61538
#	76439
#	92971
#	106687
#	121592
#	133280
#	150448
#	164363
#	181771
#	199769
#	214267
#	228729
#	242717
#	258804
#	274016
#	287904
#	301302
#
# Disc length: 4219 seconds
#
# Revision: 0
# Processed by: cddbd v1.5.2PL0 Copyright (c) Steve Scherf et al.
# Submitted via: EasyCDDAExtractor 16.0.9.1
#
DISCID=05107915
DTITLE=Hott Country Volume 240 CAN
DYEAR=2016
DGENRE=country
TTITLE0=Cam - Mayday
TTITLE1=Gord Bamford - Heard You In A Song
TTITLE2=Brothers Osborne - 21 Summer
TTITLE3=LoCash - I Know Somebody
TTITLE4=Dierks Bentley - Somewhere On A Beach
TTITLE5=Chris Young Duet With Cassadee Pope - Think Of You
TTITLE6=Beverley Mahood - New Religion
TTITLE7=Maren Morris - My Church
TTITLE8=Chris Buck Band - Giddy Up
TTITLE9=Ryan Kinder - Tonight
TTITLE10=Steven Tyler - Red White And You
TTITLE11=Brandy Clark - Girl Next Door
TTITLE12=Vince Gill - Take Me Down
TTITLE13=Matt Gary - It's On You
TTITLE14=Jess Moskaluke - Take Me Home
TTITLE15=Billy Currington - It Don't Hurt Like It Use To
TTITLE16=Drew Baldridge - Dance With Ya
TTITLE17=Rachele Lynae - Quicksand
TTITLE18=Allie Louise - Stilettos
TTITLE19=Farewell Angelina - Hillbilly 401K
TTITLE20=Backroad Anthem - Torn
EXTD=
EXTT0=
EXTT1=
EXTT2=
EXTT3=
EXTT4=
EXTT5=
EXTT6=
EXTT7=
EXTT8=
EXTT9=
EXTT10=
EXTT11=
EXTT12=
EXTT13=
EXTT14=
EXTT15=
EXTT16=
EXTT17=
EXTT18=
EXTT19=
EXTT20=
PLAYORDER=
